<svg width="390" height="365" viewBox="0 0 390 365" fill="none" xmlns="http://www.w3.org/2000/svg">
<rect x="0.5" y="0.5" width="389" height="364" rx="5.5" fill="white" stroke="#CFCFCF"/>
<path d="M75.2447 207.146C75.9861 207.146 76.5792 207.347 77.0195 207.748C77.4621 208.149 77.6823 208.677 77.6823 209.331C77.6823 209.991 77.4621 210.524 77.0195 210.928C76.578 211.333 75.9861 211.535 75.2447 211.535H73.2721V213.922H72.1903V207.146H75.2447ZM75.2447 210.545C75.6637 210.545 75.9928 210.435 76.2366 210.216C76.4792 209.998 76.6005 209.703 76.6005 209.332C76.6005 208.975 76.4792 208.685 76.2366 208.463C75.9928 208.24 75.6637 208.129 75.2447 208.129H73.2721V210.545H75.2447Z" fill="#00002B"/>
<path d="M82.261 209.26C82.6463 209.59 82.8384 210.055 82.8384 210.655V213.922H81.8375V213.346C81.405 213.824 80.8344 214.063 80.1289 214.063C79.5684 214.063 79.1179 213.916 78.7731 213.623C78.4282 213.33 78.2574 212.947 78.2574 212.476C78.2574 211.997 78.4338 211.612 78.7888 211.324C79.1415 211.034 79.6358 210.888 80.2693 210.888H81.8375V210.736C81.8375 210.413 81.7387 210.157 81.5432 209.967C81.3477 209.778 81.0882 209.684 80.7647 209.684C80.0638 209.684 79.656 209.975 79.5403 210.553L78.5394 210.342C78.627 209.869 78.8697 209.488 79.2673 209.198C79.665 208.908 80.1424 208.762 80.7029 208.762C81.3578 208.765 81.8768 208.93 82.261 209.26ZM81.3814 212.82C81.6859 212.557 81.8375 212.237 81.8375 211.859V211.698H80.2491C79.9458 211.698 79.7065 211.767 79.5313 211.906C79.3561 212.044 79.2684 212.227 79.2684 212.456C79.2684 212.685 79.3606 212.869 79.547 213.008C79.7313 213.146 79.9795 213.215 80.2896 213.215C80.7142 213.215 81.0781 213.084 81.3814 212.82Z" fill="#00002B"/>
<path d="M88.8336 209.514C89.3256 210.012 89.5716 210.646 89.5716 211.415C89.5716 212.19 89.3267 212.826 88.8392 213.32C88.3494 213.815 87.7642 214.064 87.0834 214.064C86.3151 214.064 85.7073 213.811 85.2625 213.305V216.348H84.2111V208.906H85.2625V209.523C85.7141 209.018 86.3218 208.764 87.0834 208.764C87.7574 208.765 88.3404 209.015 88.8336 209.514ZM88.0843 212.664C88.3955 212.35 88.5494 211.935 88.5494 211.416C88.5494 210.897 88.3955 210.48 88.0843 210.167C87.7754 209.853 87.3845 209.697 86.9116 209.697C86.4735 209.697 86.0904 209.858 85.759 210.177C85.4288 210.497 85.2636 210.91 85.2636 211.417C85.2636 211.924 85.4288 212.335 85.759 212.656C86.0904 212.976 86.4746 213.137 86.9116 213.137C87.3845 213.135 87.7743 212.977 88.0843 212.664Z" fill="#00002B"/>
<path d="M95.404 211.667H91.3386C91.3858 212.119 91.5543 212.481 91.8441 212.75C92.134 213.019 92.4721 213.153 92.8551 213.153C93.5482 213.153 94.0425 212.864 94.3312 212.285L95.2714 212.487C95.0681 213.006 94.7569 213.399 94.3357 213.666C93.9144 213.932 93.4213 214.064 92.8551 214.064C92.153 214.064 91.5521 213.818 91.0499 213.326C90.5478 212.834 90.2973 212.201 90.2973 211.426C90.2973 210.644 90.5478 210.005 91.0499 209.509C91.5521 209.014 92.1676 208.766 92.8956 208.766C93.5774 208.766 94.1593 209.004 94.6412 209.479C95.1231 209.955 95.377 210.563 95.4051 211.304V211.667H95.404ZM91.9261 210.019C91.6285 210.234 91.4431 210.535 91.369 210.919H94.3222C94.2413 210.521 94.0728 210.218 93.8178 210.008C93.5606 209.799 93.2539 209.696 92.8967 209.696C92.5451 209.696 92.2216 209.804 91.9261 210.019ZM92.5013 208.188L93.2393 206.753H94.4727L93.4022 208.188H92.5013Z" fill="#00002B"/>
<path d="M97.6473 206.935C97.7742 207.063 97.8394 207.218 97.8394 207.4C97.8394 207.589 97.7765 207.744 97.6518 207.865C97.5271 207.986 97.3665 208.047 97.171 208.047C96.9756 208.047 96.8138 207.986 96.6857 207.865C96.5577 207.744 96.4937 207.589 96.4937 207.4C96.4937 207.218 96.5577 207.063 96.6857 206.935C96.8127 206.807 96.9756 206.743 97.171 206.743C97.3597 206.743 97.5193 206.807 97.6473 206.935ZM96.6464 213.923V208.907H97.699V213.923H96.6464Z" fill="#00002B"/>
<path d="M99.9928 212.355C100.025 212.638 100.157 212.85 100.383 212.992C100.607 213.133 100.897 213.203 101.248 213.203C101.552 213.203 101.791 213.142 101.971 213.022C102.15 212.901 102.238 212.738 102.238 212.536C102.238 212.239 102.013 212.04 101.561 211.939L100.468 211.717C99.5581 211.515 99.102 211.06 99.102 210.352C99.102 209.88 99.2829 209.497 99.6435 209.204C100.003 208.911 100.484 208.764 101.085 208.764C101.651 208.764 102.12 208.897 102.496 209.164C102.869 209.429 103.103 209.778 103.198 210.211L102.197 210.422C102.155 210.172 102.034 209.975 101.833 209.825C101.631 209.677 101.37 209.604 101.054 209.604C100.765 209.604 100.543 209.666 100.392 209.79C100.24 209.915 100.164 210.072 100.164 210.261C100.164 210.544 100.367 210.733 100.771 210.827L101.965 211.09C102.375 211.178 102.696 211.338 102.926 211.571C103.154 211.803 103.268 212.094 103.268 212.445C103.268 212.957 103.077 213.356 102.692 213.639C102.308 213.922 101.796 214.064 101.155 214.064C100.562 214.064 100.06 213.938 99.6479 213.684C99.2379 213.431 99.0009 213.062 98.9402 212.577L99.9928 212.355Z" fill="#00002B"/>
<path d="M57.2702 217.158C60.4287 217.158 62.9891 214.598 62.9891 211.439C62.9891 208.281 60.4287 205.72 57.2702 205.72C54.1118 205.72 51.5513 208.281 51.5513 211.439C51.5513 214.598 54.1118 217.158 57.2702 217.158Z" fill="white" stroke="#00002B" stroke-miterlimit="10"/>
<path d="M75.2447 231.768C75.9861 231.768 76.5792 231.969 77.0195 232.37C77.4621 232.771 77.6823 233.299 77.6823 233.953C77.6823 234.613 77.4621 235.146 77.0195 235.55C76.578 235.955 75.9861 236.157 75.2447 236.157H73.2721V238.544H72.1903V231.768H75.2447ZM75.2447 235.167C75.6637 235.167 75.9928 235.057 76.2366 234.838C76.4792 234.62 76.6005 234.325 76.6005 233.954C76.6005 233.597 76.4792 233.307 76.2366 233.085C75.9928 232.862 75.6637 232.751 75.2447 232.751H73.2721V235.167H75.2447Z" fill="#00002B"/>
<path d="M79.7941 237.109C79.7941 237.284 79.8548 237.425 79.9761 237.533C80.0974 237.641 80.2525 237.696 80.4412 237.696C80.6232 237.696 80.8254 237.645 81.0478 237.543L81.25 238.423C80.9276 238.598 80.5962 238.686 80.2592 238.686C79.8076 238.686 79.4414 238.547 79.1606 238.271C78.882 237.995 78.7416 237.627 78.7416 237.169V230.758H79.7941V237.109Z" fill="#00002B"/>
<path d="M85.8815 233.882C86.2657 234.213 86.4578 234.678 86.4578 235.277V238.544H85.4558V237.968C85.0244 238.446 84.4549 238.686 83.7472 238.686C83.1878 238.686 82.7362 238.538 82.3924 238.245C82.0487 237.952 81.8768 237.569 81.8768 237.098C81.8768 236.619 82.0532 236.235 82.4082 235.946C82.7631 235.657 83.2563 235.51 83.8898 235.51H85.4569V235.358C85.4569 235.035 85.3592 234.779 85.1637 234.589C84.9671 234.4 84.7088 234.306 84.3852 234.306C83.6843 234.306 83.2765 234.597 83.1619 235.175L82.1599 234.964C82.2475 234.491 82.4902 234.11 82.8878 233.82C83.2855 233.531 83.764 233.385 84.3234 233.385C84.9772 233.387 85.4962 233.552 85.8815 233.882ZM85.0008 237.442C85.3041 237.179 85.4546 236.859 85.4546 236.482V236.32H83.8674C83.563 236.32 83.3248 236.39 83.1484 236.528C82.9721 236.666 82.8867 236.849 82.8867 237.078C82.8867 237.307 82.9788 237.492 83.1642 237.63C83.3506 237.768 83.5978 237.838 83.9078 237.838C84.3336 237.838 84.6975 237.706 85.0008 237.442ZM83.928 232.811L84.6661 231.375H85.9006L84.8289 232.811H83.928Z" fill="#00002B"/>
<path d="M88.4573 236.977C88.491 237.26 88.6213 237.472 88.8482 237.614C89.0728 237.756 89.3615 237.825 89.7131 237.825C90.0164 237.825 90.2568 237.765 90.4354 237.644C90.6152 237.523 90.7039 237.36 90.7039 237.158C90.7039 236.861 90.4781 236.663 90.0254 236.561L88.9336 236.339C88.0225 236.137 87.5676 235.682 87.5676 234.974C87.5676 234.502 87.7484 234.119 88.1079 233.826C88.4685 233.533 88.9493 233.386 89.5491 233.386C90.1153 233.386 90.586 233.519 90.96 233.786C91.3341 234.051 91.5678 234.4 91.6621 234.833L90.6612 235.044C90.6208 234.794 90.4984 234.597 90.2973 234.447C90.0951 234.299 89.8356 234.226 89.5188 234.226C89.229 234.226 89.0088 234.288 88.856 234.412C88.7044 234.537 88.6291 234.694 88.6291 234.883C88.6291 235.166 88.8325 235.355 89.2357 235.449L90.4298 235.712C90.841 235.8 91.1611 235.96 91.3903 236.193C91.6183 236.425 91.734 236.716 91.734 237.067C91.734 237.579 91.5419 237.978 91.1578 238.261C90.7736 238.544 90.2602 238.686 89.6199 238.686C89.0279 238.686 88.5247 238.56 88.1135 238.306C87.7024 238.053 87.4665 237.684 87.4058 237.199L88.4573 236.977Z" fill="#00002B"/>
<path d="M96.2634 238.303C95.8309 238.559 95.4164 238.687 95.0198 238.687C94.4604 238.687 94.019 238.53 93.6943 238.216C93.3719 237.904 93.209 237.443 93.209 236.836V234.398H92.1273V233.53H93.209V231.769H94.2605V233.53H95.9803V234.398H94.2605V236.765C94.2605 237.068 94.3346 237.299 94.484 237.457C94.6312 237.615 94.8345 237.695 95.0895 237.695C95.3804 237.695 95.6635 237.604 95.9398 237.422L96.2634 238.303Z" fill="#00002B"/>
<path d="M98.1932 231.557C98.3213 231.685 98.3853 231.84 98.3853 232.022C98.3853 232.211 98.3235 232.366 98.1988 232.487C98.0741 232.609 97.9135 232.669 97.718 232.669C97.5226 232.669 97.3608 232.609 97.2328 232.487C97.1036 232.366 97.0396 232.211 97.0396 232.022C97.0396 231.84 97.1036 231.685 97.2328 231.557C97.3597 231.429 97.5226 231.365 97.718 231.365C97.9068 231.365 98.064 231.429 98.1932 231.557ZM97.1912 238.545V233.53H98.2449V238.545H97.1912Z" fill="#00002B"/>
<path d="M103.031 237.448C103.29 237.269 103.481 237.007 103.602 236.664L104.574 236.918C104.431 237.45 104.135 237.878 103.683 238.203C103.231 238.527 102.714 238.688 102.125 238.688C101.391 238.688 100.766 238.44 100.249 237.944C99.7333 237.45 99.4761 236.814 99.4761 236.039C99.4761 235.27 99.7333 234.636 100.249 234.138C100.766 233.64 101.391 233.389 102.125 233.389C102.699 233.389 103.209 233.55 103.658 233.87C104.105 234.19 104.411 234.617 104.573 235.149L103.562 235.444C103.467 235.087 103.292 234.816 103.035 234.634C102.779 234.452 102.475 234.361 102.124 234.361C101.659 234.361 101.273 234.518 100.967 234.832C100.661 235.145 100.507 235.548 100.507 236.04C100.507 236.546 100.659 236.952 100.961 237.259C101.266 237.565 101.652 237.718 102.124 237.718C102.47 237.715 102.772 237.626 103.031 237.448Z" fill="#00002B"/>
<path d="M109.916 234.15C110.432 234.639 110.689 235.267 110.689 236.037C110.689 236.805 110.43 237.435 109.912 237.929C109.392 238.419 108.758 238.667 108.01 238.667C107.255 238.667 106.617 238.419 106.095 237.929C105.571 237.437 105.311 236.805 105.311 236.037C105.311 235.267 105.571 234.639 106.095 234.15C106.617 233.661 107.255 233.417 108.01 233.417C108.765 233.417 109.401 233.662 109.916 234.15ZM109.173 237.276C109.504 236.956 109.668 236.543 109.668 236.037C109.668 235.53 109.504 235.118 109.173 234.797C108.844 234.478 108.455 234.317 108.01 234.317C107.552 234.317 107.159 234.478 106.832 234.797C106.505 235.117 106.341 235.53 106.341 236.037C106.341 236.543 106.505 236.955 106.832 237.276C107.159 237.597 107.552 237.757 108.01 237.757C108.455 237.756 108.844 237.596 109.173 237.276Z" fill="#00002B"/>
<path d="M112.488 236.977C112.521 237.26 112.652 237.472 112.879 237.614C113.103 237.756 113.392 237.825 113.744 237.825C114.047 237.825 114.287 237.765 114.466 237.644C114.646 237.523 114.734 237.36 114.734 237.158C114.734 236.861 114.509 236.663 114.056 236.561L112.964 236.339C112.053 236.137 111.598 235.682 111.598 234.974C111.598 234.502 111.779 234.119 112.138 233.826C112.499 233.533 112.98 233.386 113.58 233.386C114.146 233.386 114.616 233.519 114.99 233.786C115.365 234.051 115.598 234.4 115.693 234.833L114.692 235.044C114.651 234.794 114.529 234.597 114.328 234.447C114.125 234.299 113.866 234.226 113.549 234.226C113.259 234.226 113.039 234.288 112.886 234.412C112.735 234.537 112.66 234.694 112.66 234.883C112.66 235.166 112.863 235.355 113.266 235.449L114.46 235.712C114.871 235.8 115.192 235.96 115.421 236.193C115.649 236.425 115.764 236.716 115.764 237.067C115.764 237.579 115.572 237.978 115.188 238.261C114.804 238.544 114.291 238.686 113.65 238.686C113.058 238.686 112.555 238.56 112.144 238.306C111.733 238.053 111.497 237.684 111.436 237.199L112.488 236.977Z" fill="#00002B"/>
<path d="M57.2702 241.781C60.4287 241.781 62.9891 239.22 62.9891 236.062C62.9891 232.903 60.4287 230.343 57.2702 230.343C54.1118 230.343 51.5513 232.903 51.5513 236.062C51.5513 239.22 54.1118 241.781 57.2702 241.781Z" fill="#BE1E2D"/>
<path d="M79.6144 263.168H78.5619V258.838L76.2366 263.168H75.5693L73.2429 258.838V263.168H72.1903V256.392H73.1418L75.9029 261.518L78.6742 256.392H79.6144V263.168Z" fill="#00002B"/>
<path d="M85.8815 260.912H81.8161C81.8633 261.364 82.0307 261.725 82.3216 261.995C82.6115 262.263 82.9485 262.398 83.3315 262.398C84.0269 262.398 84.5189 262.108 84.8076 261.53L85.7489 261.732C85.5467 262.251 85.2356 262.644 84.8143 262.911C84.3919 263.177 83.8988 263.309 83.3315 263.309C82.6317 263.309 82.0296 263.063 81.5274 262.571C81.0264 262.079 80.7737 261.446 80.7737 260.671C80.7737 259.889 81.0264 259.25 81.5274 258.754C82.0296 258.259 82.6452 258.01 83.3742 258.01C84.0538 258.01 84.6357 258.249 85.1187 258.724C85.6018 259.2 85.8556 259.808 85.8826 260.549V260.912H85.8815ZM82.4014 259.264C82.1048 259.479 81.9195 259.78 81.8465 260.164H84.7997C84.7188 259.766 84.5492 259.463 84.2931 259.253C84.037 259.044 83.7314 258.941 83.3742 258.941C83.0226 258.941 82.6991 259.048 82.4014 259.264Z" fill="#00002B"/>
<path d="M90.3793 262.925C89.948 263.181 89.5335 263.309 89.1358 263.309C88.5764 263.309 88.1349 263.152 87.8114 262.838C87.4879 262.526 87.325 262.066 87.325 261.458V259.02H86.2432V258.152H87.325V256.392H88.3776V258.152H90.0963V259.02H88.3776V261.387C88.3776 261.69 88.4517 261.922 88.6 262.079C88.7483 262.236 88.9516 262.317 89.2066 262.317C89.4975 262.317 89.7806 262.226 90.0569 262.044L90.3793 262.925Z" fill="#00002B"/>
<path d="M94.9086 258.505C95.2939 258.835 95.4849 259.3 95.4849 259.9V263.167H94.484V262.59C94.0515 263.069 93.482 263.308 92.7754 263.308C92.216 263.308 91.7644 263.161 91.4195 262.868C91.0758 262.575 90.9039 262.192 90.9039 261.721C90.9039 261.241 91.0814 260.857 91.4353 260.568C91.7891 260.278 92.2834 260.132 92.9169 260.132H94.4851V259.981C94.4851 259.657 94.3863 259.401 94.1908 259.211C93.9953 259.023 93.737 258.928 93.4123 258.928C92.7125 258.928 92.3047 259.219 92.189 259.798L91.187 259.586C91.2746 259.114 91.5184 258.733 91.9149 258.443C92.3126 258.153 92.7911 258.007 93.3517 258.007C94.0055 258.009 94.5233 258.174 94.9086 258.505ZM94.029 262.065C94.3335 261.802 94.484 261.482 94.484 261.104V260.942H92.8956C92.5923 260.942 92.3542 261.012 92.1778 261.15C92.0014 261.288 91.9149 261.471 91.9149 261.701C91.9149 261.93 92.0082 262.114 92.1935 262.252C92.3789 262.39 92.626 262.46 92.9372 262.46C93.3607 262.46 93.7246 262.327 94.029 262.065Z" fill="#00002B"/>
<path d="M97.9405 256.179C98.0685 256.307 98.1326 256.462 98.1326 256.644C98.1326 256.833 98.0708 256.988 97.9461 257.11C97.8214 257.231 97.6608 257.291 97.4653 257.291C97.2698 257.291 97.1081 257.231 96.98 257.11C96.8508 256.988 96.7868 256.833 96.7868 256.644C96.7868 256.462 96.8508 256.307 96.98 256.179C97.107 256.051 97.2698 255.987 97.4653 255.987C97.654 255.987 97.8124 256.051 97.9405 256.179ZM96.9385 263.168V258.152H97.9921V263.168H96.9385Z" fill="#00002B"/>
<path d="M100.286 261.599C100.32 261.882 100.45 262.095 100.676 262.236C100.902 262.378 101.189 262.447 101.541 262.447C101.844 262.447 102.084 262.387 102.264 262.267C102.443 262.145 102.533 261.982 102.533 261.78C102.533 261.484 102.307 261.285 101.854 261.184L100.761 260.961C99.8501 260.759 99.3963 260.304 99.3963 259.596C99.3963 259.125 99.576 258.742 99.9366 258.448C100.297 258.155 100.778 258.008 101.377 258.008C101.943 258.008 102.415 258.142 102.788 258.408C103.163 258.673 103.396 259.022 103.491 259.455L102.489 259.666C102.45 259.417 102.327 259.219 102.125 259.07C101.923 258.921 101.664 258.848 101.348 258.848C101.057 258.848 100.838 258.91 100.685 259.035C100.532 259.159 100.458 259.317 100.458 259.505C100.458 259.789 100.66 259.977 101.063 260.072L102.257 260.334C102.67 260.422 102.99 260.583 103.218 260.815C103.447 261.048 103.563 261.339 103.563 261.689C103.563 262.201 103.37 262.6 102.985 262.883C102.601 263.166 102.089 263.308 101.449 263.308C100.855 263.308 100.352 263.182 99.9422 262.928C99.53 262.676 99.2952 262.306 99.2334 261.822L100.286 261.599Z" fill="#00002B"/>
<path d="M57.2702 266.403C60.4287 266.403 62.9891 263.842 62.9891 260.684C62.9891 257.526 60.4287 254.965 57.2702 254.965C54.1118 254.965 51.5513 257.526 51.5513 260.684C51.5513 263.842 54.1118 266.403 57.2702 266.403Z" fill="#EBE70E"/>
<path d="M75.5177 285.542H74.4763L71.5332 278.766H72.7273L74.9931 284.076L77.2588 278.766H78.4619L75.5177 285.542Z" fill="#00002B"/>
<path d="M80.4704 278.555C80.5985 278.683 80.6636 278.838 80.6636 279.02C80.6636 279.209 80.5996 279.364 80.4761 279.485C80.3514 279.607 80.1907 279.667 79.9953 279.667C79.7987 279.667 79.638 279.607 79.5089 279.485C79.3819 279.364 79.3168 279.209 79.3168 279.02C79.3168 278.838 79.3819 278.683 79.5089 278.555C79.6369 278.427 79.7987 278.363 79.9953 278.363C80.184 278.363 80.3435 278.427 80.4704 278.555ZM79.4707 285.542V280.527H80.5221V285.542H79.4707Z" fill="#00002B"/>
<path d="M87.1251 285.542H86.0635V284.925C85.6187 285.431 85.0109 285.684 84.2426 285.684C83.5686 285.684 82.9856 285.434 82.4935 284.936C82.0004 284.437 81.7544 283.802 81.7544 283.035C81.7544 282.265 82.0004 281.632 82.4935 281.134C82.9856 280.635 83.5686 280.385 84.2426 280.385C85.0042 280.385 85.6119 280.639 86.0635 281.144V277.756H87.1251V285.542ZM85.567 284.278C85.8972 283.962 86.0624 283.547 86.0624 283.035C86.0624 282.529 85.8972 282.116 85.567 281.795C85.2356 281.476 84.8514 281.315 84.4144 281.315C83.9494 281.315 83.5618 281.473 83.2518 281.79C82.9418 282.107 82.7856 282.522 82.7856 283.034C82.7856 283.553 82.9418 283.968 83.2518 284.282C83.5618 284.595 83.9494 284.752 84.4144 284.752C84.8525 284.754 85.2356 284.596 85.567 284.278Z" fill="#00002B"/>
<path d="M92.0261 280.506L91.9554 281.517C91.9015 281.511 91.8037 281.507 91.6611 281.507C91.041 281.507 90.5692 281.708 90.2457 282.108C89.9221 282.509 89.7604 283.064 89.7604 283.772V285.541H88.7078V280.525H89.7604V281.597C90.2187 280.841 90.8556 280.464 91.6712 280.464C91.8217 280.466 91.9385 280.479 92.0261 280.506Z" fill="#00002B"/>
<path d="M97.0374 281.148C97.553 281.637 97.8102 282.265 97.8102 283.035C97.8102 283.803 97.5507 284.433 97.0318 284.927C96.5128 285.419 95.8792 285.665 95.1311 285.665C94.3762 285.665 93.737 285.417 93.2147 284.927C92.6912 284.435 92.4306 283.803 92.4306 283.035C92.4306 282.265 92.6912 281.637 93.2147 281.148C93.737 280.659 94.3762 280.415 95.1311 280.415C95.886 280.415 96.5218 280.66 97.0374 281.148ZM96.2937 284.274C96.624 283.954 96.7891 283.542 96.7891 283.035C96.7891 282.528 96.624 282.116 96.2937 281.795C95.9635 281.476 95.5759 281.315 95.1311 281.315C94.6728 281.315 94.2796 281.476 93.9527 281.795C93.6258 282.115 93.4607 282.528 93.4607 283.035C93.4607 283.542 93.6247 283.953 93.9527 284.274C94.2807 284.595 94.6728 284.755 95.1311 284.755C95.5771 284.754 95.9635 284.594 96.2937 284.274Z" fill="#00002B"/>
<path d="M99.6087 283.975C99.6412 284.258 99.7727 284.47 99.9985 284.612C100.223 284.754 100.513 284.823 100.863 284.823C101.168 284.823 101.407 284.763 101.587 284.642C101.765 284.521 101.854 284.358 101.854 284.156C101.854 283.859 101.628 283.661 101.177 283.559L100.084 283.337C99.1739 283.135 98.7179 282.68 98.7179 281.972C98.7179 281.5 98.8987 281.117 99.2593 280.824C99.6188 280.531 100.1 280.384 100.701 280.384C101.267 280.384 101.736 280.517 102.111 280.784C102.484 281.049 102.719 281.398 102.814 281.831L101.813 282.042C101.771 281.792 101.65 281.595 101.449 281.445C101.246 281.297 100.986 281.224 100.67 281.224C100.38 281.224 100.159 281.286 100.007 281.411C99.8558 281.535 99.7794 281.692 99.7794 281.881C99.7794 282.164 99.9827 282.353 100.387 282.447L101.581 282.71C101.991 282.798 102.311 282.958 102.542 283.191C102.77 283.424 102.884 283.714 102.884 284.065C102.884 284.577 102.693 284.976 102.308 285.259C101.924 285.542 101.412 285.684 100.771 285.684C100.178 285.684 99.6761 285.558 99.2638 285.304C98.8538 285.051 98.6168 284.682 98.5561 284.198L99.6087 283.975Z" fill="#00002B"/>
<path d="M57.2702 288.779C60.4287 288.779 62.9891 286.218 62.9891 283.06C62.9891 279.901 60.4287 277.341 57.2702 277.341C54.1118 277.341 51.5513 279.901 51.5513 283.06C51.5513 286.218 54.1118 288.779 57.2702 288.779Z" fill="#00A551"/>
<path d="M58.0858 66.3203C59.5236 66.3203 60.6784 66.7416 61.5456 67.5841C62.4129 68.4266 62.8476 69.5342 62.8476 70.908C62.8476 72.3346 62.3915 73.4771 61.4771 74.3398C60.5639 75.2014 59.3428 75.6316 57.8128 75.6316H55.073V79.3442H51.3424V66.3203H58.0858ZM57.368 72.6761C57.8858 72.6761 58.3172 72.52 58.6598 72.2099C59.0024 71.8999 59.1754 71.4978 59.1754 71.0046C59.1754 70.5395 59.0035 70.1565 58.6598 69.8577C58.3161 69.56 57.8858 69.4117 57.368 69.4117H55.0741V72.6761H57.368Z" fill="#00002B"/>
<path d="M71.8477 69.4702L71.7118 73.221H71.1277C70.0785 73.221 69.2753 73.4648 68.717 73.95C68.1587 74.4353 67.8812 75.243 67.8812 76.3697V79.3431H64.2473V69.5275H67.8812V71.4708C68.6069 70.097 69.6954 69.4106 71.1468 69.4106C71.4467 69.4118 71.6792 69.432 71.8477 69.4702Z" fill="#00002B"/>
<path d="M81.7128 70.7137C82.7811 71.6854 83.317 72.93 83.317 74.4454C83.317 75.9608 82.7811 77.2021 81.7128 78.167C80.6445 79.132 79.3448 79.615 77.816 79.615C76.2871 79.615 74.9863 79.132 73.9169 78.167C72.8486 77.2021 72.3139 75.9608 72.3139 74.4454C72.3139 72.93 72.8486 71.6854 73.9169 70.7137C74.9863 69.742 76.286 69.2556 77.816 69.2556C79.3437 69.2556 80.6445 69.742 81.7128 70.7137ZM79.2247 75.981C79.6201 75.5665 79.8166 75.0554 79.8166 74.4465C79.8166 73.8377 79.6223 73.3255 79.2336 72.9109C78.8438 72.4964 78.3709 72.2886 77.8149 72.2886C77.2577 72.2886 76.7836 72.4964 76.395 72.9109C76.0063 73.3255 75.8108 73.8377 75.8108 74.4465C75.8108 75.0554 76.0085 75.5665 76.4028 75.981C76.7994 76.3955 77.2689 76.6045 77.8137 76.6045C78.3597 76.6033 78.8292 76.3955 79.2247 75.981Z" fill="#00002B"/>
<path d="M95.3467 79.3442H91.7127V78.5085C90.9871 79.26 90.0277 79.6363 88.8348 79.6363C87.4744 79.6363 86.3432 79.1533 85.4434 78.1883C84.5414 77.2234 84.092 75.9754 84.092 74.4465C84.092 72.9042 84.5414 71.6505 85.4434 70.6845C86.3432 69.7195 87.4744 69.2365 88.8348 69.2365C90.0277 69.2365 90.9859 69.6128 91.7127 70.3643V64.377H95.3467V79.3442ZM91.1297 75.981C91.5184 75.5665 91.7139 75.0554 91.7139 74.4465C91.7139 73.8242 91.5184 73.3063 91.1297 72.8918C90.7411 72.4773 90.267 72.2684 89.7098 72.2684C89.1145 72.2684 88.6348 72.4728 88.2731 72.8806C87.9091 73.2884 87.7294 73.8107 87.7294 74.4465C87.7294 75.0688 87.9091 75.5844 88.2731 75.9922C88.6348 76.4 89.1145 76.6044 89.7098 76.6044C90.267 76.6033 90.7411 76.3955 91.1297 75.981Z" fill="#00002B"/>
<path d="M107.398 79.3442H103.764V78.3523C102.973 79.2083 101.988 79.6363 100.809 79.6363C99.6951 79.6363 98.801 79.2735 98.1258 78.5478C97.4518 77.8221 97.116 76.8426 97.116 75.6125V69.5286H100.77V74.8352C100.77 75.3014 100.897 75.6777 101.15 75.963C101.403 76.2483 101.735 76.391 102.151 76.391C102.643 76.391 103.035 76.2102 103.327 75.8462C103.619 75.4845 103.765 74.9666 103.765 74.2915V69.5297H107.399V79.3442H107.398Z" fill="#00002B"/>
<path d="M119.255 75.6518C119.087 76.6493 118.647 77.4918 117.934 78.1782C117.22 78.8646 116.352 79.3117 115.33 79.5195L114.532 82.4536H110.781L112.706 79.4599C111.525 79.1746 110.565 78.5826 109.819 77.6817C109.074 76.7808 108.702 75.7013 108.702 74.4454C108.702 72.9165 109.229 71.6651 110.286 70.6934C111.341 69.7218 112.627 69.2354 114.143 69.2354C115.427 69.2354 116.542 69.5948 117.488 70.3149C118.433 71.0338 119.016 71.9819 119.238 73.1625L115.895 73.8624C115.79 73.3557 115.584 72.9704 115.271 72.7053C114.961 72.4402 114.585 72.3077 114.143 72.3077C113.574 72.3077 113.108 72.5121 112.745 72.9199C112.382 73.3277 112.201 73.8365 112.201 74.4454C112.201 75.0542 112.382 75.5597 112.745 75.9619C113.108 76.364 113.574 76.564 114.143 76.564C115.077 76.564 115.672 76.0461 115.933 75.0082L119.255 75.6518Z" fill="#00002B"/>
<path d="M128.518 70.2957C129.34 71.0023 129.751 72.0032 129.751 73.2995V79.3442H126.234V78.6646C125.468 79.3116 124.516 79.6362 123.376 79.6362C122.3 79.6362 121.435 79.3408 120.781 78.7522C120.126 78.1624 119.798 77.3873 119.798 76.4291C119.798 75.4305 120.171 74.6543 120.917 74.0971C121.662 73.5399 122.715 73.2613 124.076 73.2613H126.234V73.0086C126.234 72.6839 126.133 72.4222 125.932 72.2211C125.731 72.02 125.468 71.9201 125.145 71.9201C124.432 71.9201 124.011 72.2559 123.882 72.9299L120.441 72.2301C120.687 71.2831 121.214 70.5485 122.025 70.0239C122.835 69.4993 123.855 69.2364 125.086 69.2364C126.551 69.2364 127.694 69.5892 128.518 70.2957ZM123.803 67.7503C123.712 67.8345 123.629 67.9862 123.549 68.2063H121.509C121.509 67.1437 121.735 66.3135 122.189 65.7181C122.643 65.1228 123.213 64.824 123.9 64.824C124.34 64.824 124.784 64.9442 125.231 65.1834C125.678 65.4227 126.011 65.5429 126.233 65.5429C126.414 65.5429 126.55 65.4946 126.641 65.3969C126.73 65.2991 126.815 65.1351 126.893 64.9015H128.933C128.933 65.9642 128.707 66.7943 128.254 67.3897C127.801 67.985 127.23 68.2838 126.544 68.2838C126.104 68.2838 125.66 68.1738 125.213 67.9536C124.766 67.7334 124.432 67.6233 124.211 67.6233C124.031 67.6233 123.894 67.6649 123.803 67.7503ZM125.776 76.6426C126.08 76.3842 126.233 76.0337 126.233 75.5923V75.2822H124.775C124.425 75.2822 124.143 75.362 123.93 75.5248C123.717 75.6877 123.61 75.8978 123.61 76.1573C123.61 76.4291 123.71 76.6437 123.911 76.7987C124.113 76.9537 124.367 77.0324 124.679 77.0324C125.106 77.0312 125.472 76.9021 125.776 76.6426Z" fill="#00002B"/>
<path d="M140.237 70.7137C141.306 71.6854 141.841 72.93 141.841 74.4454C141.841 75.9608 141.306 77.2021 140.237 78.167C139.169 79.132 137.869 79.615 136.341 79.615C134.812 79.615 133.511 79.132 132.441 78.167C131.373 77.2021 130.838 75.9608 130.838 74.4454C130.838 72.93 131.373 71.6854 132.441 70.7137C133.511 69.742 134.811 69.2556 136.341 69.2556C137.869 69.2556 139.169 69.742 140.237 70.7137ZM137.749 75.981C138.145 75.5665 138.341 75.0554 138.341 74.4465C138.341 73.8377 138.147 73.3255 137.758 72.9109C137.368 72.4964 136.895 72.2886 136.339 72.2886C135.782 72.2886 135.308 72.4964 134.92 72.9109C134.531 73.3255 134.335 73.8377 134.335 74.4465C134.335 75.0554 134.533 75.5665 134.927 75.981C135.324 76.3955 135.793 76.6045 136.338 76.6045C136.885 76.6033 137.355 76.3955 137.749 75.981Z" fill="#00002B"/>
<path d="M61.2446 94.0104C62.1466 94.9753 62.596 96.2301 62.596 97.7724C62.596 99.3002 62.1466 100.548 61.2446 101.513C60.3448 102.478 59.2136 102.961 57.8521 102.961C56.6603 102.961 55.7021 102.586 54.9753 101.833V107.334H51.3424V92.8522H54.9764V93.688C55.7021 92.9376 56.6614 92.5613 57.8532 92.5613C59.2136 92.5624 60.3448 93.0443 61.2446 94.0104ZM58.416 99.3159C58.7789 98.9081 58.9597 98.3925 58.9597 97.7713C58.9597 97.1355 58.7789 96.6143 58.416 96.2054C58.0543 95.7976 57.5735 95.5932 56.9782 95.5932C56.4221 95.5932 55.9481 95.801 55.5594 96.2155C55.1707 96.63 54.9753 97.1478 54.9753 97.7713C54.9753 98.379 55.1707 98.8913 55.5594 99.3058C55.9481 99.7203 56.4221 99.9281 56.9782 99.9281C57.5735 99.9281 58.0543 99.7248 58.416 99.3159Z" fill="#00002B"/>
<path d="M72.7722 94.0398C73.8405 95.0115 74.3752 96.2561 74.3752 97.7715C74.3752 99.2869 73.8405 100.527 72.7722 101.493C71.7028 102.458 70.4031 102.941 68.8743 102.941C67.3454 102.941 66.0446 102.458 64.9763 101.493C63.908 100.528 63.3722 99.288 63.3722 97.7715C63.3722 96.255 63.908 95.0115 64.9763 94.0398C66.0446 93.0681 67.3443 92.5806 68.8743 92.5806C70.402 92.5806 71.7028 93.0681 72.7722 94.0398ZM70.2841 99.306C70.6795 98.8914 70.8761 98.3792 70.8761 97.7715C70.8761 97.1615 70.6806 96.6504 70.2919 96.2359C69.9033 95.8214 69.4292 95.6124 68.8732 95.6124C68.316 95.6124 67.8431 95.8214 67.4544 96.2359C67.0646 96.6504 66.8703 97.1615 66.8703 97.7715C66.8703 98.3792 67.068 98.8914 67.4622 99.306C67.8565 99.7205 68.3272 99.9283 68.872 99.9283C69.418 99.9283 69.8875 99.7216 70.2841 99.306Z" fill="#00002B"/>
<path d="M83.2766 92.7962L83.1406 96.5471H82.5565C81.5073 96.5471 80.7052 96.7897 80.147 97.2761C79.5898 97.7614 79.3112 98.5679 79.3112 99.6958V102.668H75.6761V92.8524H79.3112V94.7958C80.0369 93.422 81.1254 92.7356 82.5756 92.7356C82.8755 92.7367 83.1092 92.7558 83.2766 92.7962Z" fill="#00002B"/>
<path d="M96.0084 102.241C95.1131 102.722 94.1807 102.961 93.209 102.961C91.9385 102.961 90.9601 102.617 90.2738 101.931C89.5874 101.245 89.2448 100.279 89.2448 99.0352V95.6921H87.7474V92.8535H89.2448V89.6475H92.8788V92.8535H95.4827V95.6921H92.8788V98.6263C92.8788 99.4171 93.2686 99.8125 94.0448 99.8125C94.4863 99.8125 94.9008 99.7092 95.2883 99.5013L96.0084 102.241Z" fill="#00002B"/>
<path d="M100.421 88.5869C100.81 88.9823 101.004 89.4451 101.004 89.9754C101.004 90.546 100.813 91.0189 100.43 91.3953C100.048 91.7704 99.5592 91.9592 98.9616 91.9592C98.3663 91.9592 97.8776 91.7704 97.4946 91.3953C97.1115 91.0189 96.9205 90.546 96.9205 89.9754C96.9205 89.4317 97.116 88.9655 97.5047 88.5757C97.8933 88.187 98.3786 87.9927 98.9616 87.9927C99.5458 87.9938 100.031 88.1915 100.421 88.5869ZM97.1553 102.669V92.8533H100.789V102.669H97.1553Z" fill="#00002B"/>
<path d="M112.695 94.0104C113.596 94.9753 114.046 96.2301 114.046 97.7724C114.046 99.3002 113.596 100.548 112.695 101.513C111.795 102.478 110.664 102.961 109.303 102.961C108.11 102.961 107.152 102.586 106.425 101.833V107.334H102.792V92.8522H106.425V93.688C107.151 92.9376 108.11 92.5613 109.303 92.5613C110.664 92.5624 111.795 93.0443 112.695 94.0104ZM109.867 99.3159C110.23 98.9081 110.411 98.3925 110.411 97.7713C110.411 97.1355 110.23 96.6143 109.867 96.2054C109.504 95.7965 109.024 95.5932 108.429 95.5932C107.872 95.5932 107.398 95.801 107.009 96.2155C106.62 96.63 106.425 97.1478 106.425 97.7713C106.425 98.379 106.62 98.8913 107.009 99.3058C107.398 99.7203 107.872 99.9281 108.429 99.9281C109.024 99.9281 109.504 99.7248 109.867 99.3159Z" fill="#00002B"/>
<path d="M124.222 94.0398C125.29 95.0115 125.826 96.2561 125.826 97.7715C125.826 99.2869 125.29 100.527 124.222 101.493C123.154 102.459 121.854 102.941 120.325 102.941C118.796 102.941 117.496 102.458 116.426 101.493C115.358 100.528 114.823 99.288 114.823 97.7715C114.823 96.255 115.358 95.0115 116.426 94.0398C117.496 93.0681 118.795 92.5806 120.325 92.5806C121.853 92.5806 123.153 93.0681 124.222 94.0398ZM121.734 99.306C122.129 98.8914 122.326 98.3792 122.326 97.7715C122.326 97.1615 122.132 96.6504 121.743 96.2359C121.353 95.8214 120.88 95.6124 120.324 95.6124C119.767 95.6124 119.293 95.8214 118.904 96.2359C118.516 96.6504 118.32 97.1615 118.32 97.7715C118.32 98.3792 118.518 98.8914 118.912 99.306C119.309 99.7205 119.778 99.9283 120.323 99.9283C120.869 99.9283 121.338 99.7216 121.734 99.306Z" fill="#00002B"/>
<path d="M142.152 102.669H138.518V101.833C137.792 102.586 136.833 102.961 135.64 102.961C134.279 102.961 133.148 102.478 132.248 101.513C131.346 100.548 130.897 99.3003 130.897 97.7726C130.897 96.2302 131.346 94.9766 132.248 94.0105C133.148 93.0456 134.279 92.5626 135.64 92.5626C136.833 92.5626 137.791 92.9389 138.518 93.6893V87.7019H142.152V102.669ZM137.935 99.3059C138.323 98.8914 138.519 98.3792 138.519 97.7715C138.519 97.148 138.323 96.6302 137.935 96.2157C137.546 95.8011 137.072 95.5933 136.515 95.5933C135.919 95.5933 135.44 95.7978 135.078 96.2055C134.714 96.6133 134.534 97.1345 134.534 97.7715C134.534 98.3927 134.714 98.9083 135.078 99.316C135.44 99.7238 135.919 99.9283 136.515 99.9283C137.072 99.9283 137.546 99.7216 137.935 99.3059Z" fill="#00002B"/>
<path d="M153.911 98.6454H147.01C147.127 99.1262 147.341 99.4991 147.651 99.7642C147.961 100.029 148.344 100.162 148.798 100.162C149.627 100.162 150.205 99.8451 150.529 99.2082L153.775 99.8507C153.374 100.873 152.739 101.648 151.871 102.172C151.002 102.697 149.979 102.959 148.799 102.959C147.296 102.959 146.03 102.474 144.999 101.502C143.97 100.53 143.455 99.2857 143.455 97.7703C143.455 96.2415 143.97 94.9901 144.999 94.0184C146.03 93.0467 147.296 92.5603 148.799 92.5603C150.304 92.5603 151.528 93.04 152.474 93.9982C153.42 94.9575 153.899 96.2785 153.911 97.9624V98.6454ZM147.711 95.7304C147.401 95.9505 147.18 96.2561 147.05 96.6436H150.395C150.147 95.8146 149.616 95.4001 148.799 95.4001C148.384 95.4001 148.022 95.5102 147.711 95.7304Z" fill="#00002B"/>
<path d="M67.0668 116.985C67.7543 117.717 68.0969 118.68 68.0969 119.872V125.994H64.4629V120.629C64.4629 120.176 64.3338 119.812 64.0731 119.54C63.8148 119.269 63.4901 119.133 63.1015 119.133C62.6229 119.133 62.2399 119.31 61.9545 119.668C61.6703 120.023 61.5277 120.507 61.5277 121.116V125.995H57.8926V120.63C57.8926 120.177 57.7634 119.813 57.5039 119.542C57.2444 119.27 56.9141 119.134 56.512 119.134C56.0447 119.134 55.6729 119.309 55.3943 119.658C55.1157 120.01 54.9764 120.494 54.9764 121.118V125.996H51.3424V116.178H54.9764V117.15C55.6897 116.307 56.6479 115.886 57.8532 115.886C58.5396 115.886 59.1586 116.036 59.709 116.333C60.2594 116.631 60.6919 117.052 61.002 117.596C61.831 116.456 62.9712 115.886 64.4236 115.886C65.4987 115.886 66.3793 116.252 67.0668 116.985Z" fill="#00002B"/>
<path d="M78.0205 116.947C78.8427 117.652 79.2539 118.654 79.2539 119.949V125.995H75.7367V125.316C74.9706 125.964 74.0191 126.287 72.879 126.287C71.8028 126.287 70.9378 125.992 70.2841 125.402C69.6292 124.813 69.3011 124.039 69.3011 123.08C69.3011 122.083 69.6741 121.305 70.42 120.748C71.1648 120.191 72.2173 119.912 73.5788 119.912H75.7367V119.658C75.7367 119.336 75.6356 119.073 75.4345 118.872C75.2335 118.671 74.9706 118.57 74.6482 118.57C73.9349 118.57 73.5136 118.908 73.3845 119.581L69.9437 118.881C70.1897 117.935 70.7165 117.201 71.5276 116.675C72.3375 116.149 73.3575 115.887 74.5887 115.887C76.0535 115.886 77.1971 116.24 78.0205 116.947ZM75.2784 123.292C75.5828 123.034 75.7356 122.684 75.7356 122.243V121.932H74.2764C73.927 121.932 73.6451 122.013 73.4316 122.176C73.2182 122.338 73.1115 122.548 73.1115 122.807C73.1115 123.079 73.2115 123.294 73.4125 123.449C73.6147 123.605 73.8686 123.681 74.1809 123.681C74.6078 123.681 74.9751 123.551 75.2784 123.292Z" fill="#00002B"/>
<path d="M88.2731 125.566C87.3778 126.046 86.4454 126.286 85.4737 126.286C84.2032 126.286 83.2248 125.942 82.5385 125.256C81.8521 124.57 81.5095 123.604 81.5095 122.36V119.016H80.0121V116.178H81.5095V112.972H85.1435V116.178H87.7474V119.016H85.1435V121.952C85.1435 122.742 85.5333 123.137 86.3095 123.137C86.751 123.137 87.1655 123.034 87.553 122.827L88.2731 125.566Z" fill="#00002B"/>
<path d="M98.983 121.97H92.0824C92.1992 122.45 92.4126 122.823 92.7238 123.088C93.0338 123.353 93.4169 123.487 93.8707 123.487C94.6997 123.487 95.276 123.169 95.6006 122.533L98.8471 123.174C98.446 124.198 97.8102 124.973 96.9419 125.496C96.0747 126.022 95.0502 126.284 93.8718 126.284C92.3688 126.284 91.1017 125.797 90.0716 124.826C89.0415 123.854 88.5259 122.609 88.5259 121.094C88.5259 119.565 89.0415 118.314 90.0716 117.342C91.1017 116.37 92.3688 115.884 93.8718 115.884C95.376 115.884 96.6004 116.364 97.5463 117.322C98.4921 118.28 98.9729 119.603 98.9841 121.287V121.97H98.983ZM92.7822 119.055C92.4722 119.274 92.2497 119.58 92.1205 119.968H95.4647C95.2187 119.139 94.6874 118.725 93.8707 118.725C93.4562 118.725 93.0934 118.834 92.7822 119.055Z" fill="#00002B"/>
<path d="M107.885 116.12L107.749 119.872H107.165C106.116 119.872 105.313 120.114 104.755 120.6C104.196 121.085 103.919 121.892 103.919 123.019V125.993H100.285V116.178H103.919V118.122C104.645 116.748 105.733 116.06 107.184 116.06C107.483 116.06 107.716 116.081 107.885 116.12Z" fill="#00002B"/>
<path d="M112.355 111.912C112.745 112.307 112.938 112.77 112.938 113.3C112.938 113.871 112.747 114.345 112.365 114.72C111.983 115.095 111.495 115.284 110.897 115.284C110.299 115.284 109.812 115.095 109.429 114.72C109.047 114.345 108.856 113.871 108.856 113.3C108.856 112.757 109.05 112.292 109.439 111.902C109.829 111.512 110.313 111.319 110.897 111.319C111.481 111.319 111.965 111.518 112.355 111.912ZM109.09 125.994V116.178H112.725V125.994H109.09Z" fill="#00002B"/>
<path d="M122.862 116.947C123.684 117.652 124.095 118.654 124.095 119.949V125.995H120.578V125.316C119.812 125.964 118.86 126.287 117.72 126.287C116.644 126.287 115.779 125.992 115.125 125.402C114.47 124.813 114.142 124.039 114.142 123.08C114.142 122.083 114.515 121.305 115.261 120.748C116.006 120.191 117.059 119.912 118.42 119.912H120.578V119.658C120.578 119.336 120.477 119.073 120.276 118.872C120.075 118.671 119.812 118.57 119.489 118.57C118.776 118.57 118.355 118.908 118.226 119.581L114.785 118.881C115.031 117.935 115.558 117.201 116.369 116.675C117.179 116.149 118.199 115.887 119.43 115.887C120.895 115.886 122.038 116.24 122.862 116.947ZM120.12 123.292C120.424 123.034 120.577 122.684 120.577 122.243V121.932H119.118C118.768 121.932 118.486 122.013 118.273 122.176C118.059 122.338 117.953 122.548 117.953 122.807C117.953 123.079 118.053 123.294 118.254 123.449C118.456 123.605 118.71 123.681 119.022 123.681C119.449 123.681 119.816 123.551 120.12 123.292Z" fill="#00002B"/>
<path d="M129.187 122.418C129.187 122.639 129.258 122.816 129.401 122.953C129.543 123.09 129.731 123.158 129.965 123.158C130.211 123.158 130.554 123.08 130.995 122.925L131.538 125.587C131.241 125.742 131.019 125.856 130.877 125.928C130.734 126 130.495 126.077 130.158 126.161C129.821 126.245 129.458 126.287 129.069 126.287C128.007 126.287 127.155 125.959 126.514 125.305C125.872 124.652 125.552 123.786 125.552 122.709V111.028H129.186V122.418H129.187Z" fill="#00002B"/>
<path d="M55.4628 145.86C55.9043 146.728 56.5771 147.662 57.4848 148.659L54.9382 150.913C53.6947 149.735 52.7275 148.493 52.0411 147.191C51.3548 145.888 51.0121 144.42 51.0121 142.788C51.0121 141.142 51.3525 139.672 52.0321 138.376C52.7117 137.079 53.6812 135.835 54.9382 134.644L57.3882 136.937C56.5198 137.935 55.8706 138.862 55.4448 139.717C55.0168 140.573 54.8023 141.596 54.8023 142.788C54.8011 143.967 55.0224 144.991 55.4628 145.86Z" fill="#00002B"/>
<path d="M64.792 136.937C65.466 137.56 65.8019 138.369 65.8019 139.367C65.8019 140.365 65.4649 141.175 64.792 141.796C64.118 142.42 63.3014 142.73 62.3421 142.73C61.3704 142.73 60.5436 142.42 59.864 141.796C59.1844 141.175 58.844 140.365 58.844 139.367C58.844 138.369 59.1844 137.56 59.864 136.937C60.5436 136.315 61.3704 136.004 62.3421 136.004C63.3014 136.004 64.1192 136.316 64.792 136.937ZM61.4681 138.434C61.2221 138.668 61.0985 138.978 61.0985 139.367C61.0985 139.743 61.2243 140.049 61.4771 140.29C61.731 140.53 62.0185 140.649 62.3432 140.649C62.6678 140.649 62.9498 140.53 63.189 140.29C63.4283 140.049 63.5485 139.743 63.5485 139.367C63.5485 138.978 63.4283 138.668 63.189 138.434C62.9498 138.2 62.6667 138.083 62.3432 138.083C62.0062 138.085 61.7141 138.2 61.4681 138.434ZM70.4087 136.296H72.3521L63.0801 149.32H61.1176L70.4087 136.296ZM73.6945 143.818C74.3685 144.44 74.7043 145.249 74.7043 146.248C74.7043 147.246 74.3673 148.055 73.6945 148.678C73.0193 149.3 72.2038 149.611 71.2445 149.611C70.2728 149.611 69.4471 149.3 68.7664 148.678C68.0868 148.055 67.7464 147.246 67.7464 146.248C67.7464 145.249 68.0868 144.44 68.7664 143.818C69.4471 143.196 70.2728 142.885 71.2445 142.885C72.2038 142.885 73.0193 143.197 73.6945 143.818ZM70.3705 145.315C70.1234 145.548 70.0009 145.859 70.0009 146.248C70.0009 146.623 70.1279 146.931 70.3806 147.171C70.6334 147.41 70.9209 147.531 71.2456 147.531C71.5702 147.531 71.8511 147.41 72.0915 147.171C72.3319 146.931 72.4509 146.623 72.4509 146.248C72.4509 145.859 72.3319 145.548 72.0915 145.315C71.8511 145.082 71.5702 144.964 71.2456 144.964C70.9086 144.965 70.6177 145.082 70.3705 145.315Z" fill="#00002B"/>
<path d="M78.6327 134.644C79.8762 135.848 80.8378 137.097 81.5174 138.384C82.1981 139.674 82.5385 141.142 82.5385 142.788C82.5385 144.42 82.1981 145.885 81.5174 147.18C80.8378 148.477 79.8762 149.721 78.6327 150.912L76.0659 148.657C76.9746 147.673 77.6475 146.745 78.089 145.878C78.5293 145.01 78.7495 143.98 78.7495 142.787C78.7495 141.594 78.5361 140.567 78.1081 139.707C77.6801 138.844 77.0319 137.921 76.1647 136.935L78.6327 134.644Z" fill="#00002B"/>
<path d="M239.433 195.057V101.237C239.433 101.237 238.894 101.223 238.875 101.223C216.495 101.223 195.993 108.945 179.737 121.866L239.433 195.057Z" fill="#00A551"/>
<path d="M238.875 101.223C238.894 101.223 239.433 101.237 239.433 101.237V195.057L179.737 121.867C195.993 108.945 216.495 101.223 238.875 101.223ZM238.732 100.1C216.731 100.1 196.015 107.323 178.825 120.986C178.59 121.174 178.439 121.447 178.407 121.746C178.375 122.044 178.463 122.343 178.653 122.576L238.277 195.765C238.494 196.032 238.817 196.179 239.148 196.179C239.274 196.179 239.545 196.157 239.667 196.114C240.114 195.954 240.557 195.53 240.557 195.055V101.237C240.557 100.616 239.912 100.114 239.291 100.114L239.054 100.108C238.936 100.103 238.744 100.1 238.732 100.1Z" fill="#00002B"/>
<path d="M239.22 194.719L171.13 111.139C156.364 123.33 144.881 139.347 138.179 157.669L239.22 194.719Z" fill="#EBE70E"/>
<path d="M171.129 111.139L239.219 194.719L138.178 157.669C144.88 139.347 156.364 123.328 171.129 111.139ZM171.129 110.016C170.87 110.016 170.616 110.106 170.413 110.273C155.328 122.726 143.817 138.983 137.122 157.283C136.91 157.867 137.209 158.511 137.791 158.724L238.831 195.773C238.958 195.821 239.088 195.843 239.219 195.843C239.574 195.843 239.917 195.675 240.133 195.371C240.426 194.96 240.408 194.403 240.089 194.01L172 110.43C171.811 110.199 171.537 110.052 171.239 110.023C171.203 110.018 171.166 110.016 171.129 110.016Z" fill="#00002B"/>
<path d="M142.212 159.244C138.265 170.173 136.109 181.959 136.109 194.249C136.109 219.664 144.897 242.926 160.151 260.894L238.31 194.917V195.98H239.248L239.184 195.241L142.212 159.244Z" fill="#BE1E2D"/>
<path d="M160.366 261.684L160.005 261.257C144.233 242.68 135.549 218.883 135.549 194.249C135.549 182.168 137.613 170.325 141.684 159.053L141.876 158.52L142.408 158.717L238.821 194.227L239.434 193.71V194.452L239.695 194.549L239.894 195.979H238.481L160.366 261.684ZM142.55 159.966C138.649 170.957 136.672 182.488 136.672 194.249C136.672 218.428 145.131 241.793 160.501 260.103L237.83 195.06L142.55 159.966Z" fill="#00002B"/>
<path d="M240.487 91.1865C240.087 91.1865 239.433 91.1978 239.433 91.2023V194.858L160.872 260.997C179.87 283.807 208.41 298.327 240.416 298.327C297.616 298.327 344.021 251.957 344.021 194.757C344.021 137.557 297.687 91.1865 240.487 91.1865Z" fill="white"/>
<path d="M240.487 91.1866C297.687 91.1866 343.986 137.557 343.986 194.757C343.986 251.957 297.58 298.327 240.381 298.327C208.375 298.327 179.888 283.806 160.89 260.998L239.433 194.858V91.2023C239.433 91.1978 240.087 91.1866 240.487 91.1866ZM240.345 90.0632C240.088 90.0632 239.834 90.0677 239.578 90.0722L239.278 90.079L238.31 90.0902V91.2012V194.336L160.148 260.138L159.224 260.858L159.902 261.716C179.876 285.699 209.191 299.451 240.362 299.451C298.092 299.451 345.047 252.486 345.047 194.758C345.047 137.03 298.074 90.0632 240.345 90.0632Z" fill="#00002B"/>
<path d="M169.69 143.199L166.168 152.128H162.748L166.202 143.602H161.383V140.822H169.69V143.199Z" fill="#00002B"/>
<path d="M176.093 141.395C176.678 141.934 176.969 142.636 176.969 143.501C176.969 144.366 176.677 145.068 176.093 145.607C175.509 146.147 174.802 146.416 173.97 146.416C173.127 146.416 172.411 146.148 171.822 145.607C171.232 145.068 170.937 144.366 170.937 143.501C170.937 142.636 171.232 141.934 171.822 141.395C172.411 140.856 173.127 140.586 173.97 140.586C174.802 140.586 175.509 140.856 176.093 141.395ZM173.212 142.692C172.999 142.896 172.892 143.165 172.892 143.502C172.892 143.828 173.002 144.094 173.221 144.303C173.44 144.511 173.69 144.614 173.971 144.614C174.252 144.614 174.496 144.51 174.703 144.303C174.911 144.094 175.015 143.828 175.015 143.502C175.015 143.165 174.91 142.896 174.703 142.692C174.495 142.49 174.252 142.389 173.971 142.389C173.679 142.389 173.425 142.49 173.212 142.692ZM180.963 140.839H182.648L174.61 152.128H172.908L180.963 140.839ZM183.81 147.361C184.394 147.899 184.685 148.601 184.685 149.466C184.685 150.332 184.393 151.034 183.81 151.572C183.225 152.11 182.519 152.381 181.686 152.381C180.844 152.381 180.128 152.112 179.538 151.572C178.949 151.033 178.654 150.332 178.654 149.466C178.654 148.601 178.949 147.899 179.538 147.361C180.128 146.822 180.844 146.551 181.686 146.551C182.519 146.551 183.226 146.821 183.81 147.361ZM180.929 148.657C180.716 148.86 180.609 149.129 180.609 149.466C180.609 149.792 180.719 150.059 180.937 150.267C181.156 150.475 181.406 150.578 181.687 150.578C181.968 150.578 182.213 150.474 182.42 150.267C182.629 150.059 182.731 149.792 182.731 149.466C182.731 149.129 182.627 148.86 182.42 148.657C182.212 148.455 181.968 148.354 181.687 148.354C181.395 148.355 181.142 148.455 180.929 148.657Z" fill="#00002B"/>
<path d="M267.536 215.147C268.85 216.4 269.508 218.042 269.508 220.075C269.508 222.149 268.755 223.843 267.243 225.155C265.734 226.471 263.822 227.128 261.501 227.128C258.73 227.128 256.529 226.215 254.897 224.386C253.266 222.559 252.447 220.015 252.447 216.752C252.447 212.973 253.433 210.068 255.405 208.034C257.087 206.394 259.139 205.573 261.563 205.573C263.513 205.573 265.154 206.024 266.489 206.928C267.823 207.831 268.706 209.113 269.139 210.778L263.593 211.884C263.308 210.857 262.558 210.344 261.347 210.344C260.526 210.344 259.807 210.686 259.191 211.363C258.432 212.245 258.031 213.444 257.992 214.963C259.16 213.836 260.608 213.271 262.331 213.271C264.488 213.271 266.224 213.896 267.536 215.147ZM263.224 221.753C263.78 221.249 264.057 220.627 264.057 219.89C264.057 219.13 263.786 218.499 263.24 217.997C262.695 217.492 262.053 217.241 261.316 217.241C260.597 217.241 259.972 217.492 259.437 217.997C258.903 218.498 258.637 219.13 258.637 219.89C258.637 220.627 258.903 221.249 259.437 221.753C259.972 222.255 260.597 222.509 261.316 222.509C262.034 222.509 262.672 222.256 263.224 221.753Z" fill="#00ADEE"/>
<path d="M286.845 223.278V226.665H281.331V223.278H270.893V217.95L279.824 206.004H286.845V218.505H289.275V223.278H286.845ZM281.331 211.853L276.621 218.505H281.331V211.853Z" fill="#00ADEE"/>
<path d="M299.559 207.049C300.627 208.033 301.16 209.317 301.16 210.899C301.16 212.48 300.627 213.764 299.559 214.748C298.491 215.733 297.199 216.225 295.68 216.225C294.14 216.225 292.831 215.733 291.753 214.748C290.675 213.764 290.136 212.48 290.136 210.899C290.136 209.317 290.675 208.033 291.753 207.049C292.831 206.065 294.14 205.572 295.68 205.572C297.2 205.572 298.491 206.067 299.559 207.049ZM294.295 209.422C293.905 209.79 293.709 210.285 293.709 210.899C293.709 211.493 293.911 211.982 294.31 212.361C294.711 212.741 295.168 212.93 295.681 212.93C296.193 212.93 296.64 212.741 297.019 212.361C297.398 211.982 297.591 211.494 297.591 210.899C297.591 210.284 297.398 209.79 297.019 209.422C296.64 209.053 296.193 208.868 295.681 208.868C295.146 208.868 294.683 209.053 294.295 209.422ZM308.458 206.033H311.537L296.848 226.664H293.74L308.458 206.033ZM313.662 217.95C314.73 218.937 315.264 220.221 315.264 221.8C315.264 223.379 314.73 224.662 313.662 225.648C312.594 226.635 311.302 227.128 309.783 227.128C308.243 227.128 306.934 226.635 305.858 225.648C304.779 224.662 304.241 223.379 304.241 221.8C304.241 220.221 304.779 218.937 305.858 217.95C306.934 216.966 308.243 216.473 309.783 216.473C311.303 216.472 312.594 216.966 313.662 217.95ZM308.396 220.322C308.007 220.692 307.811 221.184 307.811 221.799C307.811 222.393 308.011 222.882 308.412 223.263C308.812 223.641 309.27 223.832 309.783 223.832C310.297 223.832 310.741 223.641 311.121 223.263C311.501 222.882 311.692 222.394 311.692 221.799C311.692 221.183 311.501 220.692 311.121 220.322C310.74 219.951 310.297 219.767 309.783 219.767C309.25 219.767 308.787 219.951 308.396 220.322Z" fill="#00ADEE"/>
<path d="M204.825 128.725H201.641V121.176L199.028 122.507V119.526L202.736 117.437H204.825V128.725Z" fill="white"/>
<path d="M214.918 128.725H206.24H206.223V126.586L210.232 123.013C210.582 122.698 210.824 122.468 210.965 122.323C211.105 122.176 211.252 121.976 211.404 121.724C211.556 121.473 211.632 121.217 211.632 120.958C211.632 120.631 211.526 120.365 211.32 120.157C211.112 119.948 210.844 119.846 210.52 119.846C209.677 119.846 209.222 120.38 209.155 121.446L206.088 120.873C206.146 119.727 206.569 118.826 207.361 118.17C208.153 117.512 209.189 117.184 210.47 117.184C211.751 117.184 212.784 117.521 213.571 118.194C214.356 118.869 214.75 119.789 214.75 120.958C214.75 121.687 214.574 122.314 214.219 122.836C213.864 123.359 213.29 123.973 212.491 124.682L211.025 125.946H214.918V128.725Z" fill="white"/>
<path d="M221.288 117.991C221.873 118.531 222.164 119.233 222.164 120.098C222.164 120.963 221.872 121.665 221.288 122.204C220.704 122.743 219.997 123.013 219.165 123.013C218.323 123.013 217.606 122.744 217.017 122.204C216.427 121.665 216.132 120.963 216.132 120.098C216.132 119.233 216.427 118.531 217.017 117.991C217.606 117.452 218.323 117.183 219.165 117.183C219.996 117.183 220.703 117.452 221.288 117.991ZM218.406 119.289C218.193 119.492 218.085 119.762 218.085 120.099C218.085 120.425 218.196 120.691 218.415 120.9C218.634 121.108 218.884 121.211 219.165 121.211C219.446 121.211 219.69 121.106 219.897 120.9C220.105 120.691 220.209 120.425 220.209 120.099C220.209 119.762 220.104 119.492 219.897 119.289C219.688 119.087 219.446 118.986 219.165 118.986C218.873 118.986 218.62 119.087 218.406 119.289ZM226.158 117.435H227.843L219.805 128.725H218.103L226.158 117.435ZM229.005 123.957C229.59 124.496 229.88 125.198 229.88 126.063C229.88 126.929 229.588 127.631 229.005 128.169C228.42 128.707 227.714 128.978 226.881 128.978C226.039 128.978 225.323 128.708 224.733 128.169C224.144 127.63 223.849 126.929 223.849 126.063C223.849 125.198 224.144 124.496 224.733 123.957C225.323 123.418 226.039 123.148 226.881 123.148C227.712 123.148 228.42 123.417 229.005 123.957ZM226.123 125.254C225.909 125.456 225.803 125.726 225.803 126.063C225.803 126.388 225.913 126.656 226.131 126.864C226.35 127.071 226.6 127.175 226.881 127.175C227.162 127.175 227.407 127.07 227.614 126.864C227.823 126.656 227.925 126.388 227.925 126.063C227.925 125.726 227.821 125.456 227.614 125.254C227.406 125.052 227.162 124.95 226.881 124.95C226.589 124.952 226.337 125.052 226.123 125.254Z" fill="white"/>
<path d="M156.188 210.069H153.003V202.52L150.391 203.852V200.87L154.098 198.781H156.188V210.069Z" fill="white"/>
<path d="M165.64 201.138L162.118 210.069H158.697L162.151 201.543H157.332V198.762H165.64V201.138Z" fill="white"/>
<path d="M172.042 199.335C172.626 199.873 172.917 200.576 172.917 201.442C172.917 202.308 172.625 203.01 172.042 203.548C171.459 204.086 170.751 204.357 169.918 204.357C169.076 204.357 168.36 204.087 167.77 203.548C167.181 203.009 166.886 202.308 166.886 201.442C166.886 200.576 167.181 199.873 167.77 199.335C168.36 198.797 169.076 198.527 169.918 198.527C170.749 198.528 171.458 198.797 172.042 199.335ZM169.161 200.634C168.948 200.836 168.841 201.106 168.841 201.443C168.841 201.769 168.951 202.035 169.169 202.243C169.387 202.452 169.637 202.554 169.918 202.554C170.199 202.554 170.445 202.45 170.651 202.243C170.859 202.035 170.963 201.769 170.963 201.443C170.963 201.106 170.858 200.836 170.651 200.634C170.444 200.432 170.199 200.331 169.918 200.331C169.626 200.331 169.374 200.432 169.161 200.634ZM176.911 198.779H178.596L170.56 210.069H168.858L176.911 198.779ZM179.759 205.3C180.344 205.84 180.635 206.542 180.635 207.407C180.635 208.272 180.343 208.974 179.759 209.513C179.174 210.052 178.468 210.323 177.635 210.323C176.793 210.323 176.076 210.053 175.488 209.513C174.899 208.972 174.602 208.272 174.602 207.407C174.602 206.542 174.899 205.84 175.488 205.3C176.076 204.762 176.793 204.492 177.635 204.492C178.468 204.492 179.174 204.761 179.759 205.3ZM176.878 206.598C176.666 206.801 176.558 207.07 176.558 207.407C176.558 207.732 176.668 207.999 176.887 208.207C177.106 208.415 177.356 208.519 177.637 208.519C177.917 208.519 178.162 208.414 178.37 208.207C178.577 207.999 178.681 207.732 178.681 207.407C178.681 207.07 178.576 206.801 178.37 206.598C178.161 206.394 177.917 206.293 177.637 206.293C177.344 206.294 177.091 206.394 176.878 206.598Z" fill="white"/>
</svg>
